<?xml version="1.0" encoding="utf-8"?>
<!-- Generator: Adobe Illustrator 21.0.2, SVG Export Plug-In . SVG Version: 6.00 Build 0)  -->
<svg version="1.1" id="Layer_1" xmlns="http://www.w3.org/2000/svg" xmlns:xlink="http://www.w3.org/1999/xlink" x="0px" y="0px"
	 viewBox="0 0 383 22.1" style="enable-background:new 0 0 383 22.1;" xml:space="preserve">
<style type="text/css">
	.st0{fill:#193D7C;}
</style>
<title>logo</title>
<g id="TEXT">
	<path class="st0" d="M32.5-0.4l-7.2,23h-3.1L16.6,5.5c-0.1-0.4-0.3-0.8-0.3-1.2c-0.1,0.5-0.2,0.9-0.3,1.2l-5.7,17.1H7.2L0-0.4h2.8
		c0.3,0,0.5,0.1,0.8,0.2C3.8-0.1,3.9,0.1,4,0.4l4.5,15.4c0.1,0.3,0.2,0.6,0.2,1L9,17.8c0.1-0.4,0.1-0.8,0.2-1.1
		c0.1-0.3,0.2-0.7,0.3-1l5.2-15.4c0.1-0.2,0.2-0.4,0.4-0.6c0.2-0.1,0.5-0.2,0.7-0.2h1c0.3,0,0.5,0.1,0.7,0.2
		c0.2,0.1,0.3,0.4,0.4,0.6l5.2,15.4c0.2,0.7,0.4,1.3,0.5,2c0.1-0.7,0.3-1.4,0.4-2l4.6-15.4c0.1-0.2,0.2-0.4,0.4-0.6
		c0.2-0.2,0.5-0.2,0.7-0.2H32.5z"/>
	<path class="st0" d="M44.6,22.6h-3.4v-23h3.4V22.6z"/>
	<path class="st0" d="M73.4-0.4v23h-1.7c-0.2,0-0.5,0-0.7-0.1c-0.2-0.1-0.4-0.3-0.5-0.5l-13-16.8c0,0.3,0,0.6,0.1,0.8s0,0.5,0,0.8
		v15.8h-3v-23h1.8c0.2,0,0.5,0,0.7,0.1c0.2,0.1,0.4,0.3,0.5,0.5l13,16.8c0-0.3-0.1-0.6-0.1-0.9s0-0.6,0-0.8V-0.4H73.4z"/>
	<path class="st0" d="M97.9,0c1.3,0,2.6,0.1,3.9,0.4c0.9,0.2,1.8,0.6,2.6,1.2c0.7,0.5,1.2,1.1,1.5,1.9c0.3,0.8,0.5,1.6,0.5,2.5
		c0,0.5-0.1,1-0.2,1.4c-0.1,0.5-0.4,0.9-0.7,1.3c-0.3,0.4-0.7,0.8-1.2,1.1c-0.5,0.4-1.1,0.7-1.7,0.9c1.2,0.2,2.4,0.8,3.2,1.7
		c0.7,0.9,1.1,2,1,3.1c0,0.9-0.2,1.8-0.6,2.6c-0.4,0.8-0.9,1.5-1.6,2.1c-0.8,0.6-1.7,1.1-2.6,1.4c-1.1,0.4-2.3,0.5-3.5,0.5h-8.8V0
		H97.9z M94.9,3.8v5.5h2.7c0.5,0,1,0,1.5-0.1c0.4-0.1,0.8-0.2,1.2-0.4c0.3-0.2,0.6-0.5,0.7-0.8c0.2-0.4,0.3-0.9,0.2-1.3
		c0-0.4-0.1-0.9-0.2-1.3c-0.1-0.3-0.3-0.6-0.6-0.8c-0.3-0.2-0.6-0.4-1-0.5c-0.5-0.1-1-0.1-1.5-0.1L94.9,3.8z M98.5,18.3
		c0.6,0,1.1-0.1,1.7-0.3c0.4-0.1,0.7-0.4,1-0.7c0.2-0.3,0.4-0.6,0.5-0.9c0.1-0.3,0.1-0.7,0.1-1c0-0.4,0-0.7-0.2-1.1
		c-0.1-0.3-0.3-0.6-0.6-0.8c-0.3-0.2-0.6-0.4-1-0.5c-0.5-0.1-1.1-0.2-1.6-0.2h-3.6v5.5L98.5,18.3z"/>
	<path class="st0" d="M121.5,22.1h-5.2V0h5.2V22.1z"/>
	<path class="st0" d="M143.1,10.6h7.9V20c-1.1,0.8-2.3,1.4-3.6,1.8c-1.3,0.4-2.6,0.6-4,0.6c-1.7,0-3.4-0.3-5-0.9
		c-1.4-0.5-2.7-1.3-3.8-2.4c-1.1-1-1.9-2.2-2.4-3.6c-0.6-1.4-0.9-3-0.9-4.5c0-1.6,0.2-3.1,0.8-4.6c0.5-1.3,1.3-2.6,2.4-3.6
		c1.1-1,2.3-1.8,3.7-2.3c1.6-0.6,3.2-0.9,4.9-0.8c0.9,0,1.7,0.1,2.6,0.2c0.8,0.1,1.5,0.3,2.2,0.6c0.7,0.2,1.3,0.6,1.9,0.9
		c0.5,0.3,1.1,0.7,1.5,1.2L149.7,5c-0.2,0.3-0.5,0.6-0.9,0.7c-0.4,0.1-0.8,0-1.2-0.3c-0.4-0.2-0.8-0.5-1.1-0.6
		c-0.4-0.2-0.7-0.3-1.1-0.4c-0.4-0.1-0.8-0.2-1.2-0.2C143.7,4,143.2,4,142.8,4c-0.9,0-1.8,0.2-2.6,0.5c-0.8,0.3-1.4,0.8-2,1.4
		c-0.6,0.7-1,1.4-1.3,2.2c-0.3,0.9-0.5,1.9-0.4,2.9c0,1.1,0.1,2.1,0.5,3.1c0.3,0.9,0.8,1.6,1.4,2.3c0.6,0.6,1.3,1.1,2.1,1.4
		c0.9,0.3,1.8,0.5,2.8,0.5c0.6,0,1.1-0.1,1.7-0.2c0.5-0.1,1-0.3,1.5-0.5v-3.4h-2.2c-0.3,0-0.6-0.1-0.8-0.3c-0.2-0.2-0.3-0.4-0.3-0.6
		L143.1,10.6z"/>
	<path class="st0" d="M183.3,22.2h-2.9c-0.5,0-1-0.2-1.3-0.7l-5.5-7.7c-0.1-0.2-0.3-0.4-0.6-0.6c-0.3-0.1-0.6-0.2-0.9-0.2H170v9.1
		h-3.3V0h6.4c1.3,0,2.5,0.1,3.7,0.4c0.9,0.2,1.8,0.7,2.6,1.2c0.7,0.5,1.2,1.2,1.5,2c0.3,0.8,0.5,1.7,0.5,2.6c0,0.7-0.1,1.5-0.4,2.2
		c-0.2,0.7-0.6,1.3-1,1.8c-0.5,0.6-1,1-1.7,1.4c-0.7,0.4-1.5,0.7-2.3,0.9c0.4,0.3,0.8,0.6,1.1,1L183.3,22.2z M173,10.7
		c0.8,0,1.5-0.1,2.2-0.3c0.6-0.2,1.1-0.5,1.6-0.9c0.4-0.4,0.8-0.8,1-1.4c0.2-0.5,0.3-1.1,0.3-1.7c0.1-1.1-0.4-2.2-1.3-2.9
		c-1.1-0.7-2.5-1.1-3.8-1H170v8.1L173,10.7z"/>
	<path class="st0" d="M196.7,22.2h-3.3V0h3.3L196.7,22.2z"/>
	<path class="st0" d="M219.9,3.6c-0.1,0.2-0.2,0.3-0.3,0.4c-0.1,0.1-0.3,0.1-0.4,0.1c-0.2,0-0.5-0.1-0.6-0.3
		c-0.2-0.2-0.5-0.4-0.9-0.6c-0.4-0.2-0.8-0.4-1.3-0.6c-0.6-0.2-1.2-0.3-1.8-0.3c-0.6,0-1.2,0.1-1.7,0.3c-0.5,0.1-0.9,0.4-1.2,0.7
		c-0.3,0.3-0.6,0.6-0.8,1c-0.2,0.4-0.3,0.8-0.3,1.3c0,0.5,0.1,1.1,0.5,1.5c0.3,0.4,0.7,0.8,1.2,1c0.5,0.3,1.1,0.5,1.7,0.7l1.9,0.6
		c0.7,0.2,1.3,0.5,1.9,0.8c0.6,0.3,1.2,0.6,1.7,1.1c0.5,0.4,0.9,1,1.2,1.6c0.3,0.7,0.5,1.5,0.5,2.3c0,0.9-0.2,1.9-0.5,2.8
		c-0.3,0.8-0.8,1.6-1.5,2.2c-0.7,0.7-1.5,1.2-2.4,1.5c-1,0.4-2.1,0.6-3.2,0.5c-1.4,0-2.7-0.3-4-0.8c-0.6-0.2-1.2-0.6-1.7-0.9
		c-0.5-0.3-1-0.7-1.4-1.2l0.9-1.6c0.1-0.1,0.2-0.2,0.3-0.3c0.1-0.1,0.3-0.1,0.4-0.1c0.3,0,0.5,0.1,0.8,0.3c0.3,0.2,0.6,0.5,1.1,0.8
		c0.5,0.3,1,0.6,1.5,0.8c0.7,0.2,1.4,0.4,2.1,0.3c0.6,0,1.2-0.1,1.8-0.3c0.5-0.2,1-0.4,1.4-0.8c0.4-0.3,0.7-0.8,0.8-1.2
		c0.2-0.5,0.3-1,0.3-1.6c0-0.6-0.1-1.1-0.4-1.6c-0.3-0.4-0.7-0.8-1.2-1c-0.5-0.3-1.1-0.5-1.7-0.7l-1.9-0.6c-0.7-0.2-1.3-0.5-1.9-0.7
		c-0.6-0.3-1.2-0.6-1.7-1.1c-0.5-0.5-0.9-1.1-1.2-1.7c-0.3-0.8-0.5-1.6-0.4-2.5c0-0.8,0.1-1.6,0.4-2.3c0.3-0.8,0.8-1.4,1.4-2
		c0.6-0.6,1.4-1.1,2.2-1.4c1-0.4,2-0.5,3-0.5c1.2,0,2.3,0.2,3.4,0.6c1,0.4,1.9,1,2.7,1.7L219.9,3.6z"/>
	<path class="st0" d="M234.7,9.6h1.1c0.3,0,0.7,0,1-0.1c0.3-0.1,0.5-0.3,0.7-0.5l7.1-8.2c0.2-0.2,0.4-0.4,0.7-0.6
		c0.3-0.1,0.6-0.2,0.9-0.2h2.8l-8.2,9.5c-0.2,0.2-0.4,0.5-0.6,0.6c-0.2,0.2-0.4,0.3-0.6,0.4c0.6,0.2,1.1,0.6,1.5,1.2l8.6,10.5h-2.9
		c-0.2,0-0.4,0-0.5,0c-0.1,0-0.3-0.1-0.4-0.1c-0.1-0.1-0.2-0.1-0.3-0.2c-0.1-0.1-0.2-0.2-0.2-0.3l-7.3-8.7c-0.1-0.1-0.2-0.2-0.3-0.3
		c-0.1-0.1-0.2-0.2-0.4-0.2c-0.1-0.1-0.3-0.1-0.5-0.1c-0.2,0-0.4,0-0.6,0h-1.4v10h-3.3V0h3.3L234.7,9.6z"/>
	<path class="st0" d="M276,2.7c-0.1,0.2-0.2,0.3-0.4,0.3c-0.2,0-0.4-0.1-0.5-0.3c-0.3-0.2-0.6-0.5-0.9-0.6c-0.4-0.3-0.9-0.5-1.4-0.7
		c-1.3-0.4-2.8-0.4-4.1,0c-0.6,0.2-1.1,0.5-1.5,0.9c-0.4,0.4-0.7,0.9-0.9,1.4c-0.2,0.5-0.3,1.1-0.3,1.6c0,0.7,0.1,1.3,0.5,1.9
		c0.3,0.5,0.8,0.9,1.3,1.3c0.6,0.4,1.1,0.7,1.8,0.9l2,0.7c0.7,0.2,1.3,0.5,2,0.8c0.6,0.2,1.2,0.6,1.8,1c0.5,0.4,1,0.9,1.3,1.5
		c0.3,0.7,0.5,1.5,0.5,2.3c0,0.9-0.2,1.8-0.5,2.6c-0.3,0.8-0.8,1.5-1.4,2.1c-0.6,0.6-1.4,1.1-2.2,1.4c-1,0.4-2,0.5-3,0.5
		c-1.3,0-2.6-0.2-3.8-0.8c-1.1-0.5-2-1.2-2.8-2.1l0.4-0.7c0.1-0.1,0.3-0.2,0.4-0.2c0.1,0,0.3,0.1,0.4,0.2l0.5,0.5
		c0.2,0.2,0.5,0.4,0.8,0.6c0.3,0.2,0.6,0.4,1,0.6c0.4,0.2,0.9,0.4,1.3,0.5c0.6,0.1,1.1,0.2,1.7,0.2c0.8,0,1.6-0.1,2.4-0.4
		c0.7-0.2,1.3-0.5,1.8-1c0.5-0.5,0.8-1,1.1-1.6c0.3-0.6,0.4-1.3,0.4-2c0-0.7-0.1-1.3-0.5-1.9c-0.3-0.5-0.8-0.9-1.3-1.3
		c-0.6-0.4-1.1-0.6-1.8-0.9c-0.7-0.2-1.3-0.4-2-0.7c-0.7-0.2-1.3-0.5-2-0.7c-0.6-0.2-1.2-0.6-1.8-1c-0.5-0.4-1-1-1.3-1.6
		c-0.3-0.7-0.5-1.6-0.5-2.4c0-0.7,0.1-1.5,0.4-2.1c0.2-0.7,0.6-1.4,1.1-1.9c0.6-0.6,1.3-1,2-1.3c0.9-0.3,1.8-0.5,2.7-0.5
		c1.1,0,2.1,0.2,3.1,0.5c0.9,0.4,1.8,0.9,2.5,1.7L276,2.7z"/>
	<path class="st0" d="M308.6,0v22.1h-1.4V3.3c0-0.3,0-0.6,0-0.9l-8.7,15.5c-0.1,0.3-0.4,0.4-0.6,0.4h-0.2c-0.3,0-0.5-0.2-0.6-0.4
		l-8.9-15.5c0,0.3,0,0.6,0,0.9v18.8h-1.4V0h1.1c0.1,0,0.2,0,0.3,0c0.1,0.1,0.2,0.1,0.2,0.2l8.9,15.4c0.2,0.3,0.3,0.6,0.4,0.9
		c0.1-0.2,0.1-0.3,0.2-0.5s0.1-0.3,0.2-0.5l8.7-15.4c0.1-0.1,0.1-0.2,0.3-0.2c0.1,0,0.2,0,0.4,0L308.6,0z"/>
	<path class="st0" d="M338.3,22.1H337c-0.1,0-0.3,0-0.4-0.1c-0.1-0.1-0.2-0.2-0.2-0.3l-2.6-6.4H323l-2.6,6.4c0,0.1-0.1,0.2-0.2,0.3
		c-0.1,0.1-0.2,0.1-0.4,0.1h-1.2l9-22.1h1.6L338.3,22.1z M333.4,14.1l-4.5-11.2c-0.2-0.4-0.3-0.9-0.5-1.4c-0.1,0.2-0.1,0.5-0.2,0.7
		c-0.1,0.2-0.1,0.4-0.2,0.6L323.5,14L333.4,14.1z"/>
	<path class="st0" d="M360.3,20.8v1.4h-12.1V0h1.6v20.8H360.3z"/>
	<path class="st0" d="M383,20.8v1.4h-12.1V0h1.6v20.8H383z"/>
</g>
</svg>
